<?xml version="1.0" encoding="UTF-8" standalone="no"?><svg xmlns="http://www.w3.org/2000/svg" xmlns:xlink="http://www.w3.org/1999/xlink" fill="#000000" height="45.3" preserveAspectRatio="xMidYMid meet" version="1" viewBox="-0.5 0.0 126.4 45.3" width="126.4" zoomAndPan="magnify"><g id="change1_1"><path d="M1.43,39.73c-1.93-1.31-1.52-2.86-1-4.34c1.42-4.1,3.52-7.79,6.72-10.81C17.35,14.97,29.43,8.73,42.9,5.27 c13.81-3.55,27.44-2.77,40.62,2.9c6.2,2.67,12.26,5.68,18.6,8.64c-0.23-0.69-0.44-1.57-0.8-2.4c-2.41-5.65-2.2-6.98,2.11-11.44 c0.96-1,2.1-1.82,3.44-2.97c0.72,1.16,1.26,1.98,1.75,2.83c5.29,9.13,10.42,18.36,15.97,27.34c1.34,2.18,1.22,3.86,0.34,5.71 c-1.78,3.72-4.91,6.38-8.17,8.67c-1.14,0.8-3.27,0.54-4.88,0.31c-11.79-1.73-23.63-2.36-35.5-1.41c-3.7,0.3-7.35,1.16-11.35,1.81 c-0.44-1.18,0.29-2.49,0.99-3.6c3.29-5.21,7.29-9.55,13.85-10.47c3.1-0.43,6.19-0.89,9.29-1.29c1.38-0.18,2.78-0.22,4.49-0.35 C87.32,22.67,59.5,16.08,45.39,17.9C28.23,20.11,13.67,27.71,1.43,39.73z" fill="#000000"/></g></svg>