<?xml version="1.0" encoding="UTF-8"?><svg xmlns="http://www.w3.org/2000/svg" xmlns:xlink="http://www.w3.org/1999/xlink" height="344.9" preserveAspectRatio="xMidYMid meet" version="1.1" viewBox="55.5 55.5 314.1 344.9" width="314.1" zoomAndPan="magnify">
 <g id="surface1">
  <g id="change1_1"><path d="m55.547 212.6c0 86.74 70.313 157.05 157.05 157.05 86.74 0 157.05-70.31 157.05-157.05s-70.31-157.05-157.05-157.05c-86.74-0.003-157.05 70.31-157.05 157.05" fill="#f366ba"/></g>
  <g id="change2_1"><path d="m281.57 171.62v150.72h-133.57v-144.5l133.57-6.22" fill="#23255d"/></g>
  <g id="change2_2"><path d="m278.4 199.96s-4.31 37 19.69 36.5c0 0-10.48 13-19.99 7.5s-4.9-38-4.9-38l5.39-8.5" fill="#23255d"/></g>
  <g id="change3_1"><path d="m304.22 370.08c-7.76 5.8-16.1 10.88-24.91 15.13-1.34 0.65-2.69 1.27-4.04 1.88-19.14 8.58-40.34 13.35-62.67 13.35s-43.53-4.77-62.66-13.35c-1.37-0.61-2.72-1.23-4.05-1.88-8.81-4.26-17.15-9.33-24.91-15.13 1.36-30.36 17.49-56.88 41.38-72.54 14.43-9.47 31.69-14.97 50.24-14.97 2.83 0 5.63 0.13 8.38 0.38 15.37 1.39 29.63 6.56 41.86 14.59 11 7.21 20.35 16.72 27.37 27.84 8.24 13.05 13.27 28.32 14.01 44.7" fill="#fff"/></g>
  <g id="change4_1"><path d="m262.84 297.54c-1.4 10.59-6.07 20.16-12.98 27.64-9.26 10.03-22.52 16.32-37.26 16.32-23.61 0-43.45-16.15-49.08-38.01-0.5-1.94-0.89-3.93-1.16-5.95 14.43-9.47 31.69-14.97 50.24-14.97 2.83 0 5.63 0.12 8.39 0.38 0.48 0.04 0.96 0.09 1.43 0.14 0.3 0.03 0.6 0.06 0.89 0.1 0.33 0.03 0.66 0.08 0.98 0.12 0.2 0.02 0.41 0.05 0.61 0.08 0.29 0.03 0.59 0.08 0.89 0.12 0.23 0.03 0.46 0.07 0.7 0.1 0.2 0.03 0.4 0.06 0.6 0.1 0.34 0.05 0.67 0.11 1.01 0.16 1.46 0.25 2.91 0.53 4.34 0.85l0.96 0.21c0.18 0.05 0.37 0.09 0.55 0.14 0.34 0.08 0.69 0.16 1.02 0.25 0.06 0.01 0.11 0.02 0.15 0.03 0.43 0.11 0.86 0.22 1.28 0.34 0.46 0.11 0.91 0.24 1.35 0.37 0.51 0.14 1.01 0.29 1.52 0.44 0.39 0.12 0.78 0.24 1.17 0.37 0.25 0.08 0.51 0.16 0.75 0.24 0.41 0.13 0.82 0.27 1.22 0.41 0.5 0.17 0.99 0.34 1.48 0.52 0.04 0.02 0.07 0.03 0.1 0.04 0.51 0.18 1.01 0.37 1.51 0.56 0.37 0.15 0.75 0.29 1.13 0.45 0.99 0.39 1.96 0.8 2.92 1.22l1.26 0.57c0.38 0.17 0.76 0.35 1.14 0.53 0.35 0.17 0.69 0.33 1.03 0.5 0.32 0.15 0.63 0.31 0.94 0.47 0.2 0.1 0.41 0.2 0.61 0.31 0.83 0.42 1.64 0.86 2.44 1.3 0.29 0.16 0.59 0.33 0.87 0.49 0.19 0.11 0.37 0.21 0.55 0.31l0.68 0.4 0.69 0.42 0.45 0.27c0.43 0.25 0.85 0.51 1.27 0.78 0.46 0.29 0.91 0.58 1.36 0.88" fill="#fbd5c0"/></g>
  <g id="change4_2"><path d="m230.26 262.02v34.74c0 8.79-7.19 15.99-15.97 15.99h-3.38c-8.78 0-15.96-7.2-15.96-15.99v-34.74c0-8.79 7.18-15.98 15.96-15.98h3.38c8.78 0 15.97 7.19 15.97 15.98" fill="#fbd5c0"/></g>
  <g id="change5_1"><path d="m230.26 262.02v18.38c-5.25 2.92-10.82 4.62-16.47 4.62-6.67 0-13.03-1.86-18.84-5.09v-17.91c0-8.79 7.18-15.98 15.96-15.98h3.38c8.78 0 15.97 7.19 15.97 15.98" fill="#f8a29e"/></g>
  <g id="change4_3"><path d="m267.05 240.48s10.46-3.56 17.14-15.22c7.26-12.66 2.7-20.55 1.26-22.26-3.93-4.67-10-1.67-11 0s-15.48 27.97-7.4 37.48" fill="#fbd5c0"/></g>
  <g id="change5_2"><path d="m277.3 207.15s6.64 0.85 4.31 10.18c-2.34 9.34-8.47 13.03-16.81 17.8-8.33 4.77 4.17-26.08 12.5-27.98" fill="#f8a29e"/></g>
  <g id="change4_4"><path d="m160.87 240.48s-10.46-3.56-17.14-15.22c-7.27-12.66-2.71-20.55-1.27-22.26 3.93-4.67 10-1.67 11 0s15.49 27.97 7.41 37.48" fill="#fbd5c0"/></g>
  <g id="change5_3"><path d="m150.61 207.15s-6.63 0.85-4.3 10.18c2.33 9.34 8.47 13.03 16.8 17.8 8.34 4.77-4.16-26.08-12.5-27.98" fill="#f8a29e"/></g>
  <g id="change4_5"><path d="m277.3 200.99c0-38.33-28.29-69.41-63.2-69.41-34.9 0-63.21 31.08-63.21 69.41s28.31 78.4 63.21 78.4c32.8 0 63.2-40.39 63.2-78.4" fill="#fbd5c0"/></g>
  <g id="change2_3"><path d="m219.79 173s11.89 38.25 56.61 34.46c0 0 7.81-11.29 5.17-35.84-2.98-27.67-27.49-50.95-67.47-42.62 0 0-3.65 19.67 5.69 44" fill="#23255d"/></g>
  <g id="change2_4"><path d="m221.79 131.58s1.66-7.24-4.34-12.91-85.45 5.97-66.56 82.32c0 0 18.52-45.66 67.56-49.66l3.34-19.75" fill="#23255d"/></g>
 </g>
</svg>