<?xml version="1.0" encoding="UTF-8" standalone="no"?><svg xmlns="http://www.w3.org/2000/svg" xmlns:xlink="http://www.w3.org/1999/xlink" fill="#000000" height="426.9" preserveAspectRatio="xMidYMid meet" version="1" viewBox="-0.0 -0.0 1539.0 426.9" width="1539" zoomAndPan="magnify"><g data-name="Layer 2"><g data-name="Layer 1" id="change1_1"><path d="M1443.15,426.89H95.82A95.93,95.93,0,0,1,0,331.07V95.82A95.94,95.94,0,0,1,95.82,0H1443.15A95.94,95.94,0,0,1,1539,95.82V331.07A95.93,95.93,0,0,1,1443.15,426.89ZM95.82,12A83.91,83.91,0,0,0,12,95.82V331.07a83.91,83.91,0,0,0,83.82,83.82H1443.15A83.91,83.91,0,0,0,1527,331.07V95.82A83.91,83.91,0,0,0,1443.15,12Z" fill="#be4286"/></g></g></svg>