<?xml version="1.0" encoding="UTF-8"?><svg xmlns="http://www.w3.org/2000/svg" xmlns:xlink="http://www.w3.org/1999/xlink" height="97.8" preserveAspectRatio="xMidYMid meet" version="1.0" viewBox="23.4 1.0 53.1 97.8" width="53.1" zoomAndPan="magnify"><g><g><g id="change1_1"><path d="M75.14,27.457H24.866c-0.789,0-1.428,0.639-1.428,1.422v66.213c0,2.074,1.685,3.759,3.765,3.759h23.595 c13.973,0,25.352-11.128,25.753-25.005c0.006-0.251,0.012-0.502,0.012-0.759V28.879C76.562,28.096,75.923,27.457,75.14,27.457z M49.997,39.314c-1.912,0-3.472-1.56-3.472-3.472c0-1.924,1.56-3.472,3.472-3.472c1.924,0,3.478,1.548,3.478,3.472 C53.475,37.754,51.921,39.314,49.997,39.314z" fill="#B74B58"/></g><g id="change2_1"><path d="M76.55,73.843c-0.4,13.877-11.78,25.005-25.753,25.005H27.203c-2.08,0-3.765-1.685-3.765-3.759V73.843 H76.55z" fill="#E0CDBB"/></g></g><g id="change3_1"><path d="M50.203,33.956c-0.143,0-0.323-0.05-0.518-0.22c-0.317-0.277-0.417-0.69-0.489-0.992 c-0.661-2.739-0.741-5.647-0.818-8.46c-0.041-1.485-0.083-3.021-0.212-4.502c-0.433-4.996-1.185-9.297-2.3-13.15l-0.027-0.095 c-0.28-0.967-0.571-1.967-0.434-2.997c0.143-1.077,0.911-2.24,2.104-2.378c1.107-0.131,2.214,0.673,2.96,2.144 c1.055,2.082,1.36,4.44,1.532,6.678l0,0c0.312,4.05,0.279,8.395-0.103,13.673c-0.064,0.885-0.102,1.79-0.139,2.665 c-0.032,0.762-0.064,1.525-0.113,2.286l-0.011,0.204c-0.207,4.156-0.746,4.906-1.192,5.096 C50.385,33.932,50.303,33.956,50.203,33.956z M47.749,1.746c-0.056,0-0.113,0.003-0.171,0.01c-0.88,0.102-1.471,1.036-1.581,1.863 c-0.12,0.906,0.152,1.844,0.416,2.752l0.027,0.095c1.126,3.89,1.885,8.229,2.321,13.265c0.13,1.498,0.172,3.043,0.214,4.537 c0.077,2.782,0.156,5.659,0.802,8.337c0.07,0.29,0.141,0.541,0.301,0.682c0.064,0.056,0.117,0.078,0.131,0.071 c0.103-0.043,0.624-0.469,0.829-4.575l0.011-0.212c0.048-0.757,0.08-1.515,0.112-2.273c0.037-0.879,0.075-1.789,0.14-2.683 c0.38-5.247,0.413-9.563,0.103-13.583c-0.168-2.177-0.462-4.466-1.469-6.454C49.711,3.134,48.914,1.746,47.749,1.746z" fill="#443F40"/></g><g id="change3_2"><path d="M54.611,27.451l-0.566,0.006c0.137-1.261-0.558-2.671-1.651-3.323c-1.088-0.651-2.582-0.598-3.628,0.12 c-1.004,0.693-1.578,1.996-1.422,3.203h-0.598c-0.155-1.422,0.502-2.875,1.679-3.693c1.249-0.861,2.97-0.92,4.273-0.143 C54.007,24.397,54.772,25.939,54.611,27.451z" fill="#443F40"/></g></g></svg>