<?xml version="1.0" encoding="UTF-8"?><svg xmlns="http://www.w3.org/2000/svg" xmlns:xlink="http://www.w3.org/1999/xlink" height="292.8" preserveAspectRatio="xMidYMid meet" version="1.0" viewBox="25.6 103.5 448.8 292.8" width="448.8" zoomAndPan="magnify"><g><g><g id="change1_1"><path d="M183.4,78.9c-54,0-97.7,31.5-97.7,70.2c0,0,0,0,0,0c0.2,37.1,40.3,67.7,91.8,69.9 c5.2,12.1,16.7,25.8,42.4,30.5c-11.1-9.4-15-21.6-15.9-32c44.9-6.9,77.1-35.4,77.2-68.5C281.2,110.4,237.4,78.9,183.4,78.9 C183.4,78.9,183.4,78.9,183.4,78.9L183.4,78.9z" fill="#832D5C" transform="matrix(-1.37012 0 0 1.37012 410.912 54.511)"/></g><g id="change2_4"><path d="M139.9,134c6.6,0,12,5.4,12,12s-5.4,12-12,12c-6.6,0-12-5.4-12-12S133.3,134,139.9,134z" fill="#FFF" transform="matrix(-1.37012 0 0 1.37012 410.912 54.511)"/></g><g id="change2_6"><path d="M183,134c6.6,0,12,5.4,12,12s-5.4,12-12,12c-6.6,0-12-5.4-12-12S176.4,134,183,134z" fill="#FFF" transform="matrix(-1.37012 0 0 1.37012 410.912 54.511)"/></g><g id="change2_5"><path d="M227,134c6.6,0,12,5.4,12,12s-5.4,12-12,12c-6.6,0-12-5.4-12-12S220.3,134,227,134z" fill="#FFF" transform="matrix(-1.37012 0 0 1.37012 410.912 54.511)"/></g></g><g><g id="change3_1"><path d="M262,51.8c-54,0-97.7,31.5-97.7,70.2c0,0,0,0,0,0c0.2,37.1,40.3,67.7,91.8,69.9 c5.2,12.1,16.7,25.8,42.4,30.5c-11.1-9.4-15-21.6-15.9-32c44.9-6.9,77.1-35.4,77.2-68.5C359.8,83.2,316,51.8,262,51.8L262,51.8 L262,51.8z" fill="#BE4286" transform="matrix(1.37012 0 0 1.37012 -18.57 32.54)"/></g><g id="change2_2"><path d="M211.5,104.9c7.7,0,13.9,6.2,13.9,13.9s-6.2,13.9-13.9,13.9c-7.7,0-13.9-6.2-13.9-13.9 S203.8,104.9,211.5,104.9z" fill="#FFF" transform="matrix(1.37012 0 0 1.37012 -18.57 32.54)"/></g><g id="change2_3"><path d="M261.5,104.9c7.7,0,13.9,6.2,13.9,13.9s-6.2,13.9-13.9,13.9c-7.7,0-13.9-6.2-13.9-13.9 S253.8,104.9,261.5,104.9z" fill="#FFF" transform="matrix(1.37012 0 0 1.37012 -18.57 32.54)"/></g><g id="change2_1"><path d="M312.5,104.9c7.7,0,13.9,6.2,13.9,13.9s-6.2,13.9-13.9,13.9c-7.7,0-13.9-6.2-13.9-13.9 S304.8,104.9,312.5,104.9z" fill="#FFF" transform="matrix(1.37012 0 0 1.37012 -18.57 32.54)"/></g></g></g></svg>