<?xml version="1.0" encoding="UTF-8"?><svg xmlns="http://www.w3.org/2000/svg" xmlns:xlink="http://www.w3.org/1999/xlink" height="99.4" preserveAspectRatio="xMidYMid meet" version="1.0" viewBox="25.5 0.2 48.9 99.4" width="48.9" zoomAndPan="magnify"><g><g id="change1_2"><path d="M46.524,24.814c-0.243-1.379,0.367-2.839,1.519-3.634c1.152-0.795,2.733-0.848,3.937-0.132 c1.203,0.717,1.909,2.133,1.758,3.524l-0.547-0.059c0.126-1.163-0.488-2.393-1.493-2.992c-1.005-0.599-2.38-0.553-3.342,0.112 c-0.963,0.665-1.494,1.933-1.29,3.085L46.524,24.814z" fill="#443F40"/></g><g id="change2_1"><path d="M67.294,30.716c-4.425-4.43-10.539-7.165-17.291-7.165c-13.511,0-24.462,10.952-24.462,24.457v51.637 h48.919V48.007C74.459,41.255,71.719,35.141,67.294,30.716z M49.997,37.964c-1.761,0-3.197-1.442-3.197-3.203 c0-1.772,1.436-3.192,3.197-3.192c1.772,0,3.203,1.42,3.203,3.192C53.2,36.522,51.769,37.964,49.997,37.964z" fill="#FFCA7C"/></g><g id="change1_1"><path d="M49.681,33.307c-0.133,0-0.303-0.049-0.486-0.224c-0.287-0.273-0.377-0.683-0.443-0.982 c-0.607-2.75-0.681-5.674-0.752-8.501c-0.038-1.495-0.077-3.041-0.195-4.532c-0.399-5.028-1.092-9.358-2.12-13.237L45.66,5.738 c-0.257-0.969-0.523-1.97-0.399-2.997c0.13-1.074,0.837-2.234,1.935-2.373c1.025-0.128,2.047,0.674,2.732,2.152 c0.968,2.086,1.248,4.454,1.407,6.702l0,0c0.286,4.07,0.256,8.438-0.095,13.746c-0.059,0.892-0.094,1.804-0.128,2.685 c-0.03,0.766-0.059,1.531-0.104,2.295l-0.01,0.212c-0.192,4.183-0.673,4.929-1.117,5.108 C49.832,33.288,49.763,33.307,49.681,33.307z M47.412,0.905c-0.048,0-0.097,0.003-0.147,0.009 c-0.81,0.102-1.356,1.052-1.458,1.893c-0.112,0.922,0.141,1.871,0.385,2.79l0.025,0.094c1.036,3.911,1.735,8.273,2.136,13.334 c0.119,1.506,0.159,3.059,0.197,4.561c0.071,2.801,0.144,5.698,0.74,8.396c0.066,0.298,0.133,0.556,0.285,0.702 c0.07,0.067,0.106,0.072,0.106,0.072c0.054-0.018,0.571-0.304,0.769-4.622l0.011-0.219c0.045-0.76,0.074-1.522,0.103-2.284 c0.034-0.885,0.069-1.8,0.129-2.701c0.35-5.282,0.38-9.626,0.095-13.671c-0.155-2.195-0.427-4.503-1.356-6.509 C49.007,1.84,48.265,0.905,47.412,0.905z" fill="#443F40"/></g></g></svg>