<?xml version="1.0" encoding="UTF-8"?><svg xmlns="http://www.w3.org/2000/svg" xmlns:xlink="http://www.w3.org/1999/xlink" height="95.0" preserveAspectRatio="xMidYMid meet" version="1.0" viewBox="26.3 2.4 47.4 95.0" width="47.4" zoomAndPan="magnify"><g><g id="change1_1"><path d="M73.058,32.865c-1.27-0.088-4.154-0.432-6.726-1.689c-2.571-1.251-4.824-3.429-4.824-7.176H38.491 c0,7.501-9.022,8.684-11.556,8.865c-0.369,0.031-0.651,0.338-0.651,0.707v63.134c0,0.388,0.313,0.707,0.707,0.707h46.016 c0.388,0,0.707-0.319,0.707-0.707V33.572C73.715,33.203,73.433,32.896,73.058,32.865z M49.997,36.193 c-2.002,0-3.635-1.639-3.635-3.641c0-2.015,1.633-3.629,3.635-3.629c2.015,0,3.641,1.614,3.641,3.629 C53.638,34.554,52.011,36.193,49.997,36.193z" fill="#989368"/></g><g id="change2_1"><path d="M67.865,5.496c-0.194,0.713-0.626,1.32-1.057,1.871c-1.939,2.446-4.436,4.398-6.851,6.294 c-0.845,0.663-1.721,1.345-2.559,2.046c-2.246,1.871-5.237,4.68-6.575,8.296h-0.657c1.345-3.866,4.486-6.819,6.832-8.778 c0.845-0.701,1.727-1.389,2.578-2.058c2.384-1.871,4.849-3.798,6.738-6.188c0.394-0.501,0.782-1.045,0.945-1.645 c0.131-0.488,0.125-1.17-0.294-1.627c-0.457-0.494-1.264-0.613-2.471-0.375c-5.668,1.145-10.767,5.174-13.639,10.786 c-1.326,2.59-2.183,5.474-2.546,8.578c-0.05,0.457-0.1,0.888-0.138,1.308c-0.225,2.503-0.206,4.336-0.031,5.437 c0.125,0.77,0.319,1.182,0.563,1.226c0.325,0.056,0.651-0.2,0.807-0.475c0.206-0.357,0.244-0.801,0.263-1.195l0.626,0.031 c-0.025,0.501-0.081,1.02-0.344,1.477c-0.275,0.488-0.776,0.795-1.264,0.795c-0.069,0-0.131-0.006-0.194-0.019 c-0.501-0.088-0.82-0.626-1.007-1.439c-0.319-1.408-0.25-3.654-0.044-5.837c0.044-0.463,0.088-0.926,0.144-1.383 c0.369-3.172,1.251-6.131,2.609-8.784c2.959-5.787,8.221-9.941,14.071-11.118c1.445-0.288,2.446-0.1,3.059,0.569 C67.921,3.825,68.084,4.67,67.865,5.496z" fill="#443F40"/></g></g></svg>