<?xml version="1.0" encoding="UTF-8"?><svg xmlns="http://www.w3.org/2000/svg" xmlns:xlink="http://www.w3.org/1999/xlink" height="58.0" preserveAspectRatio="xMidYMid meet" version="1.0" viewBox="15.0 3.0 34.0 58.0" width="34.0" zoomAndPan="magnify"><g><g id="change1_1"><path d="M 49 5 L 49 59 C 49 60.105469 48.105469 61 47 61 L 17 61 C 15.894531 61 15 60.105469 15 59 L 15 5 C 15 3.894531 15.894531 3 17 3 L 47 3 C 48.105469 3 49 3.894531 49 5" fill="#b3b3b3"/></g><g id="change2_1"><path d="M 49 9 L 49 55 L 15 55 L 15 9 L 49 9" fill="#e6e6e6"/></g><g id="change2_2"><path d="M 33 7 L 31 7 C 30.449219 7 30 6.550781 30 6 C 30 5.449219 30.449219 5 31 5 L 33 5 C 33.550781 5 34 5.449219 34 6 C 34 6.550781 33.550781 7 33 7" fill="#e6e6e6"/></g><g id="change2_3"><path d="M 37 7 C 36.730469 7 36.480469 6.898438 36.289062 6.710938 C 36.097656 6.519531 36 6.269531 36 6 C 36 5.871094 36.03125 5.738281 36.078125 5.621094 C 36.128906 5.488281 36.199219 5.390625 36.289062 5.289062 C 36.390625 5.199219 36.5 5.128906 36.621094 5.082031 C 36.988281 4.917969 37.429688 5.019531 37.710938 5.289062 C 37.800781 5.390625 37.871094 5.488281 37.917969 5.621094 C 37.96875 5.738281 38 5.871094 38 6 C 38 6.269531 37.898438 6.519531 37.710938 6.710938 C 37.609375 6.800781 37.5 6.871094 37.378906 6.917969 C 37.261719 6.96875 37.128906 7 37 7" fill="#e6e6e6"/></g><g id="change2_4"><path d="M 27 7 C 26.730469 7 26.480469 6.898438 26.289062 6.710938 C 26.097656 6.519531 26 6.269531 26 6 C 26 5.871094 26.03125 5.738281 26.078125 5.621094 C 26.128906 5.488281 26.199219 5.390625 26.289062 5.289062 C 26.667969 4.917969 27.339844 4.917969 27.710938 5.289062 C 27.800781 5.390625 27.871094 5.488281 27.917969 5.621094 C 27.96875 5.738281 28 5.871094 28 6 C 28 6.269531 27.898438 6.519531 27.710938 6.710938 C 27.519531 6.898438 27.269531 7 27 7" fill="#e6e6e6"/></g><g id="change2_5"><path d="M 35 59 L 29 59 C 28.449219 59 28 58.550781 28 58 C 28 57.449219 28.449219 57 29 57 L 35 57 C 35.550781 57 36 57.449219 36 58 C 36 58.550781 35.550781 59 35 59" fill="#e6e6e6"/></g><g id="change3_1"><path d="M 22 34 L 38 34 C 39.65625 34 41 35.34375 41 37 L 41 44 C 41 45.65625 39.65625 47 38 47 L 26 47 L 22 51 L 22 47 C 20.34375 47 19 45.65625 19 44 L 19 37 C 19 35.34375 20.34375 34 22 34" fill="#83beb9"/></g><g id="change4_1"><path d="M 42 13 L 26 13 C 24.34375 13 23 14.34375 23 16 L 23 23 C 23 24.65625 24.34375 26 26 26 L 38 26 L 42 30 L 42 26 C 43.65625 26 45 24.65625 45 23 L 45 16 C 45 14.34375 43.65625 13 42 13" fill="#a7d6dd"/></g></g></svg>