<?xml version="1.0" encoding="UTF-8" standalone="no"?><svg xmlns="http://www.w3.org/2000/svg" xmlns:xlink="http://www.w3.org/1999/xlink" fill="#422f01" height="429.9" preserveAspectRatio="xMidYMid meet" version="1" viewBox="-0.4 -0.3 440.8 429.9" width="440.8" zoomAndPan="magnify"><g id="change1_1"><path d="M439.876,271.762l-8.397-36.794v0L398.479,90.393c-0.07-0.938-0.292-1.857-0.655-2.725c-0.55-1.707-1.609-3.196-3.022-4.274 L223.846,0.866c-2.4-1.154-5.193-1.154-7.594,0L49.346,81.244c-1.486,0.336-2.89,1.06-4.046,2.146 c-1.416,1.078-2.478,2.568-3.028,4.277c-0.37,0.88-0.587,1.801-0.656,2.728l-19.154,83.924c0,0.001-0.001,0.002-0.001,0.003 l-0.854,3.739c0,0.001,0,0.001,0,0.002L1.383,266.665l-0.114,0.497l-1.05,4.6c-0.593,2.597,0.029,5.321,1.689,7.402l75.463,94.629v0 l43.483,53.139c1.263,1.544,3.121,2.558,5.116,2.567c0.013,0,0.026,0,0.039,0h186.521c0.374,0.05,0.755,0.077,1.143,0.078 c1.013,0.004,1.978-0.442,2.618-1.227l121.894-149.187C439.847,277.083,440.469,274.359,439.876,271.762z M220.049,20.22 l69.427,33.436l-69.271,51.027L150.651,53.64L220.049,20.22z M116.7,392.499L19.932,271.157l17.565-76.961l72.552,53.312l6.65,5.475 V392.499z M210.828,410.417h-75.043V248.478c0-2.86-1.266-5.544-3.479-7.368l-10.349-8.518c-0.124-0.102-0.25-0.2-0.379-0.295 l-79.45-58.384l15.255-66.839l153.444,112.604V410.417z M69.851,92.552l61.323-29.532l83.394,61.197 c1.649,1.211,3.603,1.852,5.647,1.852c2.046,0,3.999-0.641,5.659-1.859l83.058-61.185l61.342,29.541L220.36,203L69.851,92.552z M318.75,232.943l-10.315,8.49c-2.211,1.818-3.479,4.5-3.479,7.367v161.616h-75.043v-190.75l152.806-112.562l15.405,67.492 l-78.995,58.052C319,232.743,318.874,232.841,318.75,232.943z M324.04,391.691V253.305l6.618-5.447l72.094-52.979l17.41,76.278 L324.04,391.691z" fill="inherit"/></g></svg>